G04 #@! TF.GenerationSoftware,KiCad,Pcbnew,(5.1.8)-1*
G04 #@! TF.CreationDate,2021-06-11T10:05:30-05:00*
G04 #@! TF.ProjectId,Tactile_Switch_Adapter,54616374-696c-4655-9f53-77697463685f,1A*
G04 #@! TF.SameCoordinates,Original*
G04 #@! TF.FileFunction,Copper,L2,Bot*
G04 #@! TF.FilePolarity,Positive*
%FSLAX46Y46*%
G04 Gerber Fmt 4.6, Leading zero omitted, Abs format (unit mm)*
G04 Created by KiCad (PCBNEW (5.1.8)-1) date 2021-06-11 10:05:30*
%MOMM*%
%LPD*%
G01*
G04 APERTURE LIST*
G04 #@! TA.AperFunction,Profile*
%ADD10C,0.254000*%
G04 #@! TD*
G04 #@! TA.AperFunction,ComponentPad*
%ADD11C,2.000000*%
G04 #@! TD*
G04 #@! TA.AperFunction,ComponentPad*
%ADD12R,1.700000X1.700000*%
G04 #@! TD*
G04 #@! TA.AperFunction,Conductor*
%ADD13C,0.127000*%
G04 #@! TD*
G04 #@! TA.AperFunction,Conductor*
%ADD14C,0.150000*%
G04 #@! TD*
G04 APERTURE END LIST*
D10*
X94270000Y-107000000D02*
X105730000Y-107000000D01*
X105730000Y-107000000D02*
X105730000Y-93000000D01*
X94270000Y-93000000D02*
X94270000Y-107000000D01*
X94270000Y-93000000D02*
X105730000Y-93000000D01*
G04 #@! TA.AperFunction,SMDPad,CuDef*
G36*
G01*
X100237500Y-99650000D02*
X99762500Y-99650000D01*
G75*
G02*
X99525000Y-99412500I0J237500D01*
G01*
X99525000Y-98837500D01*
G75*
G02*
X99762500Y-98600000I237500J0D01*
G01*
X100237500Y-98600000D01*
G75*
G02*
X100475000Y-98837500I0J-237500D01*
G01*
X100475000Y-99412500D01*
G75*
G02*
X100237500Y-99650000I-237500J0D01*
G01*
G37*
G04 #@! TD.AperFunction*
G04 #@! TA.AperFunction,SMDPad,CuDef*
G36*
G01*
X100237500Y-101400000D02*
X99762500Y-101400000D01*
G75*
G02*
X99525000Y-101162500I0J237500D01*
G01*
X99525000Y-100587500D01*
G75*
G02*
X99762500Y-100350000I237500J0D01*
G01*
X100237500Y-100350000D01*
G75*
G02*
X100475000Y-100587500I0J-237500D01*
G01*
X100475000Y-101162500D01*
G75*
G02*
X100237500Y-101400000I-237500J0D01*
G01*
G37*
G04 #@! TD.AperFunction*
D11*
X103250000Y-97750000D03*
X103250000Y-102250000D03*
X96750000Y-97750000D03*
X96750000Y-102250000D03*
D12*
X96190000Y-105080000D03*
X103810000Y-94920000D03*
X103810000Y-105080000D03*
X96190000Y-94920000D03*
D13*
X105285501Y-99758500D02*
X100715785Y-99758500D01*
X100719620Y-99751325D01*
X100734687Y-99701655D01*
X100739775Y-99650000D01*
X100738500Y-99254375D01*
X100672625Y-99188500D01*
X100063500Y-99188500D01*
X100063500Y-99208500D01*
X99936500Y-99208500D01*
X99936500Y-99188500D01*
X99327375Y-99188500D01*
X99261500Y-99254375D01*
X99260225Y-99650000D01*
X99265313Y-99701655D01*
X99280380Y-99751325D01*
X99284215Y-99758500D01*
X94714500Y-99758500D01*
X94714500Y-98754327D01*
X96015081Y-98754327D01*
X96134062Y-98921864D01*
X96374516Y-99019511D01*
X96629400Y-99068371D01*
X96888919Y-99066567D01*
X97143099Y-99014168D01*
X97365938Y-98921864D01*
X97484919Y-98754327D01*
X97330592Y-98600000D01*
X99260225Y-98600000D01*
X99261500Y-98995625D01*
X99327375Y-99061500D01*
X99936500Y-99061500D01*
X99936500Y-98402375D01*
X100063500Y-98402375D01*
X100063500Y-99061500D01*
X100672625Y-99061500D01*
X100738500Y-98995625D01*
X100739277Y-98754327D01*
X102515081Y-98754327D01*
X102634062Y-98921864D01*
X102874516Y-99019511D01*
X103129400Y-99068371D01*
X103388919Y-99066567D01*
X103643099Y-99014168D01*
X103865938Y-98921864D01*
X103984919Y-98754327D01*
X103250000Y-98019408D01*
X102515081Y-98754327D01*
X100739277Y-98754327D01*
X100739775Y-98600000D01*
X100734687Y-98548345D01*
X100719620Y-98498675D01*
X100695152Y-98452899D01*
X100662224Y-98412776D01*
X100622101Y-98379848D01*
X100576325Y-98355380D01*
X100526655Y-98340313D01*
X100475000Y-98335225D01*
X100129375Y-98336500D01*
X100063500Y-98402375D01*
X99936500Y-98402375D01*
X99870625Y-98336500D01*
X99525000Y-98335225D01*
X99473345Y-98340313D01*
X99423675Y-98355380D01*
X99377899Y-98379848D01*
X99337776Y-98412776D01*
X99304848Y-98452899D01*
X99280380Y-98498675D01*
X99265313Y-98548345D01*
X99260225Y-98600000D01*
X97330592Y-98600000D01*
X96750000Y-98019408D01*
X96015081Y-98754327D01*
X94714500Y-98754327D01*
X94714500Y-97629400D01*
X95431629Y-97629400D01*
X95433433Y-97888919D01*
X95485832Y-98143099D01*
X95578136Y-98365938D01*
X95745673Y-98484919D01*
X96480592Y-97750000D01*
X97019408Y-97750000D01*
X97754327Y-98484919D01*
X97921864Y-98365938D01*
X98019511Y-98125484D01*
X98068371Y-97870600D01*
X98066695Y-97629400D01*
X101931629Y-97629400D01*
X101933433Y-97888919D01*
X101985832Y-98143099D01*
X102078136Y-98365938D01*
X102245673Y-98484919D01*
X102980592Y-97750000D01*
X103519408Y-97750000D01*
X104254327Y-98484919D01*
X104421864Y-98365938D01*
X104519511Y-98125484D01*
X104568371Y-97870600D01*
X104566567Y-97611081D01*
X104514168Y-97356901D01*
X104421864Y-97134062D01*
X104254327Y-97015081D01*
X103519408Y-97750000D01*
X102980592Y-97750000D01*
X102245673Y-97015081D01*
X102078136Y-97134062D01*
X101980489Y-97374516D01*
X101931629Y-97629400D01*
X98066695Y-97629400D01*
X98066567Y-97611081D01*
X98014168Y-97356901D01*
X97921864Y-97134062D01*
X97754327Y-97015081D01*
X97019408Y-97750000D01*
X96480592Y-97750000D01*
X95745673Y-97015081D01*
X95578136Y-97134062D01*
X95480489Y-97374516D01*
X95431629Y-97629400D01*
X94714500Y-97629400D01*
X94714500Y-96745673D01*
X96015081Y-96745673D01*
X96750000Y-97480592D01*
X97484919Y-96745673D01*
X102515081Y-96745673D01*
X103250000Y-97480592D01*
X103984919Y-96745673D01*
X103865938Y-96578136D01*
X103625484Y-96480489D01*
X103370600Y-96431629D01*
X103111081Y-96433433D01*
X102856901Y-96485832D01*
X102634062Y-96578136D01*
X102515081Y-96745673D01*
X97484919Y-96745673D01*
X97365938Y-96578136D01*
X97125484Y-96480489D01*
X96870600Y-96431629D01*
X96611081Y-96433433D01*
X96356901Y-96485832D01*
X96134062Y-96578136D01*
X96015081Y-96745673D01*
X94714500Y-96745673D01*
X94714500Y-95770000D01*
X95020964Y-95770000D01*
X95027094Y-95832241D01*
X95045249Y-95892090D01*
X95074731Y-95947247D01*
X95114407Y-95995593D01*
X95162753Y-96035269D01*
X95217910Y-96064751D01*
X95277759Y-96082906D01*
X95340000Y-96089036D01*
X95920125Y-96087500D01*
X95999500Y-96008125D01*
X95999500Y-95110500D01*
X96380500Y-95110500D01*
X96380500Y-96008125D01*
X96459875Y-96087500D01*
X97040000Y-96089036D01*
X97102241Y-96082906D01*
X97162090Y-96064751D01*
X97217247Y-96035269D01*
X97265593Y-95995593D01*
X97305269Y-95947247D01*
X97334751Y-95892090D01*
X97352906Y-95832241D01*
X97359036Y-95770000D01*
X102640964Y-95770000D01*
X102647094Y-95832241D01*
X102665249Y-95892090D01*
X102694731Y-95947247D01*
X102734407Y-95995593D01*
X102782753Y-96035269D01*
X102837910Y-96064751D01*
X102897759Y-96082906D01*
X102960000Y-96089036D01*
X103540125Y-96087500D01*
X103619500Y-96008125D01*
X103619500Y-95110500D01*
X104000500Y-95110500D01*
X104000500Y-96008125D01*
X104079875Y-96087500D01*
X104660000Y-96089036D01*
X104722241Y-96082906D01*
X104782090Y-96064751D01*
X104837247Y-96035269D01*
X104885593Y-95995593D01*
X104925269Y-95947247D01*
X104954751Y-95892090D01*
X104972906Y-95832241D01*
X104979036Y-95770000D01*
X104977500Y-95189875D01*
X104898125Y-95110500D01*
X104000500Y-95110500D01*
X103619500Y-95110500D01*
X102721875Y-95110500D01*
X102642500Y-95189875D01*
X102640964Y-95770000D01*
X97359036Y-95770000D01*
X97357500Y-95189875D01*
X97278125Y-95110500D01*
X96380500Y-95110500D01*
X95999500Y-95110500D01*
X95101875Y-95110500D01*
X95022500Y-95189875D01*
X95020964Y-95770000D01*
X94714500Y-95770000D01*
X94714500Y-94070000D01*
X95020964Y-94070000D01*
X95022500Y-94650125D01*
X95101875Y-94729500D01*
X95999500Y-94729500D01*
X95999500Y-93831875D01*
X96380500Y-93831875D01*
X96380500Y-94729500D01*
X97278125Y-94729500D01*
X97357500Y-94650125D01*
X97359036Y-94070000D01*
X102640964Y-94070000D01*
X102642500Y-94650125D01*
X102721875Y-94729500D01*
X103619500Y-94729500D01*
X103619500Y-93831875D01*
X104000500Y-93831875D01*
X104000500Y-94729500D01*
X104898125Y-94729500D01*
X104977500Y-94650125D01*
X104979036Y-94070000D01*
X104972906Y-94007759D01*
X104954751Y-93947910D01*
X104925269Y-93892753D01*
X104885593Y-93844407D01*
X104837247Y-93804731D01*
X104782090Y-93775249D01*
X104722241Y-93757094D01*
X104660000Y-93750964D01*
X104079875Y-93752500D01*
X104000500Y-93831875D01*
X103619500Y-93831875D01*
X103540125Y-93752500D01*
X102960000Y-93750964D01*
X102897759Y-93757094D01*
X102837910Y-93775249D01*
X102782753Y-93804731D01*
X102734407Y-93844407D01*
X102694731Y-93892753D01*
X102665249Y-93947910D01*
X102647094Y-94007759D01*
X102640964Y-94070000D01*
X97359036Y-94070000D01*
X97352906Y-94007759D01*
X97334751Y-93947910D01*
X97305269Y-93892753D01*
X97265593Y-93844407D01*
X97217247Y-93804731D01*
X97162090Y-93775249D01*
X97102241Y-93757094D01*
X97040000Y-93750964D01*
X96459875Y-93752500D01*
X96380500Y-93831875D01*
X95999500Y-93831875D01*
X95920125Y-93752500D01*
X95340000Y-93750964D01*
X95277759Y-93757094D01*
X95217910Y-93775249D01*
X95162753Y-93804731D01*
X95114407Y-93844407D01*
X95074731Y-93892753D01*
X95045249Y-93947910D01*
X95027094Y-94007759D01*
X95020964Y-94070000D01*
X94714500Y-94070000D01*
X94714500Y-93444500D01*
X105285501Y-93444500D01*
X105285501Y-99758500D01*
G04 #@! TA.AperFunction,Conductor*
D14*
G36*
X105285501Y-99758500D02*
G01*
X100715785Y-99758500D01*
X100719620Y-99751325D01*
X100734687Y-99701655D01*
X100739775Y-99650000D01*
X100738500Y-99254375D01*
X100672625Y-99188500D01*
X100063500Y-99188500D01*
X100063500Y-99208500D01*
X99936500Y-99208500D01*
X99936500Y-99188500D01*
X99327375Y-99188500D01*
X99261500Y-99254375D01*
X99260225Y-99650000D01*
X99265313Y-99701655D01*
X99280380Y-99751325D01*
X99284215Y-99758500D01*
X94714500Y-99758500D01*
X94714500Y-98754327D01*
X96015081Y-98754327D01*
X96134062Y-98921864D01*
X96374516Y-99019511D01*
X96629400Y-99068371D01*
X96888919Y-99066567D01*
X97143099Y-99014168D01*
X97365938Y-98921864D01*
X97484919Y-98754327D01*
X97330592Y-98600000D01*
X99260225Y-98600000D01*
X99261500Y-98995625D01*
X99327375Y-99061500D01*
X99936500Y-99061500D01*
X99936500Y-98402375D01*
X100063500Y-98402375D01*
X100063500Y-99061500D01*
X100672625Y-99061500D01*
X100738500Y-98995625D01*
X100739277Y-98754327D01*
X102515081Y-98754327D01*
X102634062Y-98921864D01*
X102874516Y-99019511D01*
X103129400Y-99068371D01*
X103388919Y-99066567D01*
X103643099Y-99014168D01*
X103865938Y-98921864D01*
X103984919Y-98754327D01*
X103250000Y-98019408D01*
X102515081Y-98754327D01*
X100739277Y-98754327D01*
X100739775Y-98600000D01*
X100734687Y-98548345D01*
X100719620Y-98498675D01*
X100695152Y-98452899D01*
X100662224Y-98412776D01*
X100622101Y-98379848D01*
X100576325Y-98355380D01*
X100526655Y-98340313D01*
X100475000Y-98335225D01*
X100129375Y-98336500D01*
X100063500Y-98402375D01*
X99936500Y-98402375D01*
X99870625Y-98336500D01*
X99525000Y-98335225D01*
X99473345Y-98340313D01*
X99423675Y-98355380D01*
X99377899Y-98379848D01*
X99337776Y-98412776D01*
X99304848Y-98452899D01*
X99280380Y-98498675D01*
X99265313Y-98548345D01*
X99260225Y-98600000D01*
X97330592Y-98600000D01*
X96750000Y-98019408D01*
X96015081Y-98754327D01*
X94714500Y-98754327D01*
X94714500Y-97629400D01*
X95431629Y-97629400D01*
X95433433Y-97888919D01*
X95485832Y-98143099D01*
X95578136Y-98365938D01*
X95745673Y-98484919D01*
X96480592Y-97750000D01*
X97019408Y-97750000D01*
X97754327Y-98484919D01*
X97921864Y-98365938D01*
X98019511Y-98125484D01*
X98068371Y-97870600D01*
X98066695Y-97629400D01*
X101931629Y-97629400D01*
X101933433Y-97888919D01*
X101985832Y-98143099D01*
X102078136Y-98365938D01*
X102245673Y-98484919D01*
X102980592Y-97750000D01*
X103519408Y-97750000D01*
X104254327Y-98484919D01*
X104421864Y-98365938D01*
X104519511Y-98125484D01*
X104568371Y-97870600D01*
X104566567Y-97611081D01*
X104514168Y-97356901D01*
X104421864Y-97134062D01*
X104254327Y-97015081D01*
X103519408Y-97750000D01*
X102980592Y-97750000D01*
X102245673Y-97015081D01*
X102078136Y-97134062D01*
X101980489Y-97374516D01*
X101931629Y-97629400D01*
X98066695Y-97629400D01*
X98066567Y-97611081D01*
X98014168Y-97356901D01*
X97921864Y-97134062D01*
X97754327Y-97015081D01*
X97019408Y-97750000D01*
X96480592Y-97750000D01*
X95745673Y-97015081D01*
X95578136Y-97134062D01*
X95480489Y-97374516D01*
X95431629Y-97629400D01*
X94714500Y-97629400D01*
X94714500Y-96745673D01*
X96015081Y-96745673D01*
X96750000Y-97480592D01*
X97484919Y-96745673D01*
X102515081Y-96745673D01*
X103250000Y-97480592D01*
X103984919Y-96745673D01*
X103865938Y-96578136D01*
X103625484Y-96480489D01*
X103370600Y-96431629D01*
X103111081Y-96433433D01*
X102856901Y-96485832D01*
X102634062Y-96578136D01*
X102515081Y-96745673D01*
X97484919Y-96745673D01*
X97365938Y-96578136D01*
X97125484Y-96480489D01*
X96870600Y-96431629D01*
X96611081Y-96433433D01*
X96356901Y-96485832D01*
X96134062Y-96578136D01*
X96015081Y-96745673D01*
X94714500Y-96745673D01*
X94714500Y-95770000D01*
X95020964Y-95770000D01*
X95027094Y-95832241D01*
X95045249Y-95892090D01*
X95074731Y-95947247D01*
X95114407Y-95995593D01*
X95162753Y-96035269D01*
X95217910Y-96064751D01*
X95277759Y-96082906D01*
X95340000Y-96089036D01*
X95920125Y-96087500D01*
X95999500Y-96008125D01*
X95999500Y-95110500D01*
X96380500Y-95110500D01*
X96380500Y-96008125D01*
X96459875Y-96087500D01*
X97040000Y-96089036D01*
X97102241Y-96082906D01*
X97162090Y-96064751D01*
X97217247Y-96035269D01*
X97265593Y-95995593D01*
X97305269Y-95947247D01*
X97334751Y-95892090D01*
X97352906Y-95832241D01*
X97359036Y-95770000D01*
X102640964Y-95770000D01*
X102647094Y-95832241D01*
X102665249Y-95892090D01*
X102694731Y-95947247D01*
X102734407Y-95995593D01*
X102782753Y-96035269D01*
X102837910Y-96064751D01*
X102897759Y-96082906D01*
X102960000Y-96089036D01*
X103540125Y-96087500D01*
X103619500Y-96008125D01*
X103619500Y-95110500D01*
X104000500Y-95110500D01*
X104000500Y-96008125D01*
X104079875Y-96087500D01*
X104660000Y-96089036D01*
X104722241Y-96082906D01*
X104782090Y-96064751D01*
X104837247Y-96035269D01*
X104885593Y-95995593D01*
X104925269Y-95947247D01*
X104954751Y-95892090D01*
X104972906Y-95832241D01*
X104979036Y-95770000D01*
X104977500Y-95189875D01*
X104898125Y-95110500D01*
X104000500Y-95110500D01*
X103619500Y-95110500D01*
X102721875Y-95110500D01*
X102642500Y-95189875D01*
X102640964Y-95770000D01*
X97359036Y-95770000D01*
X97357500Y-95189875D01*
X97278125Y-95110500D01*
X96380500Y-95110500D01*
X95999500Y-95110500D01*
X95101875Y-95110500D01*
X95022500Y-95189875D01*
X95020964Y-95770000D01*
X94714500Y-95770000D01*
X94714500Y-94070000D01*
X95020964Y-94070000D01*
X95022500Y-94650125D01*
X95101875Y-94729500D01*
X95999500Y-94729500D01*
X95999500Y-93831875D01*
X96380500Y-93831875D01*
X96380500Y-94729500D01*
X97278125Y-94729500D01*
X97357500Y-94650125D01*
X97359036Y-94070000D01*
X102640964Y-94070000D01*
X102642500Y-94650125D01*
X102721875Y-94729500D01*
X103619500Y-94729500D01*
X103619500Y-93831875D01*
X104000500Y-93831875D01*
X104000500Y-94729500D01*
X104898125Y-94729500D01*
X104977500Y-94650125D01*
X104979036Y-94070000D01*
X104972906Y-94007759D01*
X104954751Y-93947910D01*
X104925269Y-93892753D01*
X104885593Y-93844407D01*
X104837247Y-93804731D01*
X104782090Y-93775249D01*
X104722241Y-93757094D01*
X104660000Y-93750964D01*
X104079875Y-93752500D01*
X104000500Y-93831875D01*
X103619500Y-93831875D01*
X103540125Y-93752500D01*
X102960000Y-93750964D01*
X102897759Y-93757094D01*
X102837910Y-93775249D01*
X102782753Y-93804731D01*
X102734407Y-93844407D01*
X102694731Y-93892753D01*
X102665249Y-93947910D01*
X102647094Y-94007759D01*
X102640964Y-94070000D01*
X97359036Y-94070000D01*
X97352906Y-94007759D01*
X97334751Y-93947910D01*
X97305269Y-93892753D01*
X97265593Y-93844407D01*
X97217247Y-93804731D01*
X97162090Y-93775249D01*
X97102241Y-93757094D01*
X97040000Y-93750964D01*
X96459875Y-93752500D01*
X96380500Y-93831875D01*
X95999500Y-93831875D01*
X95920125Y-93752500D01*
X95340000Y-93750964D01*
X95277759Y-93757094D01*
X95217910Y-93775249D01*
X95162753Y-93804731D01*
X95114407Y-93844407D01*
X95074731Y-93892753D01*
X95045249Y-93947910D01*
X95027094Y-94007759D01*
X95020964Y-94070000D01*
X94714500Y-94070000D01*
X94714500Y-93444500D01*
X105285501Y-93444500D01*
X105285501Y-99758500D01*
G37*
G04 #@! TD.AperFunction*
D13*
X99337776Y-100162776D02*
X99304848Y-100202899D01*
X99280380Y-100248675D01*
X99265313Y-100298345D01*
X99260225Y-100350000D01*
X99261500Y-100745625D01*
X99327375Y-100811500D01*
X99936500Y-100811500D01*
X99936500Y-100791500D01*
X100063500Y-100791500D01*
X100063500Y-100811500D01*
X100672625Y-100811500D01*
X100738500Y-100745625D01*
X100739775Y-100350000D01*
X100734687Y-100298345D01*
X100719620Y-100248675D01*
X100695152Y-100202899D01*
X100662224Y-100162776D01*
X100633862Y-100139500D01*
X105285500Y-100139500D01*
X105285500Y-106555500D01*
X94714500Y-106555500D01*
X94714500Y-105930000D01*
X95020964Y-105930000D01*
X95027094Y-105992241D01*
X95045249Y-106052090D01*
X95074731Y-106107247D01*
X95114407Y-106155593D01*
X95162753Y-106195269D01*
X95217910Y-106224751D01*
X95277759Y-106242906D01*
X95340000Y-106249036D01*
X95920125Y-106247500D01*
X95999500Y-106168125D01*
X95999500Y-105270500D01*
X96380500Y-105270500D01*
X96380500Y-106168125D01*
X96459875Y-106247500D01*
X97040000Y-106249036D01*
X97102241Y-106242906D01*
X97162090Y-106224751D01*
X97217247Y-106195269D01*
X97265593Y-106155593D01*
X97305269Y-106107247D01*
X97334751Y-106052090D01*
X97352906Y-105992241D01*
X97359036Y-105930000D01*
X102640964Y-105930000D01*
X102647094Y-105992241D01*
X102665249Y-106052090D01*
X102694731Y-106107247D01*
X102734407Y-106155593D01*
X102782753Y-106195269D01*
X102837910Y-106224751D01*
X102897759Y-106242906D01*
X102960000Y-106249036D01*
X103540125Y-106247500D01*
X103619500Y-106168125D01*
X103619500Y-105270500D01*
X104000500Y-105270500D01*
X104000500Y-106168125D01*
X104079875Y-106247500D01*
X104660000Y-106249036D01*
X104722241Y-106242906D01*
X104782090Y-106224751D01*
X104837247Y-106195269D01*
X104885593Y-106155593D01*
X104925269Y-106107247D01*
X104954751Y-106052090D01*
X104972906Y-105992241D01*
X104979036Y-105930000D01*
X104977500Y-105349875D01*
X104898125Y-105270500D01*
X104000500Y-105270500D01*
X103619500Y-105270500D01*
X102721875Y-105270500D01*
X102642500Y-105349875D01*
X102640964Y-105930000D01*
X97359036Y-105930000D01*
X97357500Y-105349875D01*
X97278125Y-105270500D01*
X96380500Y-105270500D01*
X95999500Y-105270500D01*
X95101875Y-105270500D01*
X95022500Y-105349875D01*
X95020964Y-105930000D01*
X94714500Y-105930000D01*
X94714500Y-104230000D01*
X95020964Y-104230000D01*
X95022500Y-104810125D01*
X95101875Y-104889500D01*
X95999500Y-104889500D01*
X95999500Y-103991875D01*
X96380500Y-103991875D01*
X96380500Y-104889500D01*
X97278125Y-104889500D01*
X97357500Y-104810125D01*
X97359036Y-104230000D01*
X102640964Y-104230000D01*
X102642500Y-104810125D01*
X102721875Y-104889500D01*
X103619500Y-104889500D01*
X103619500Y-103991875D01*
X104000500Y-103991875D01*
X104000500Y-104889500D01*
X104898125Y-104889500D01*
X104977500Y-104810125D01*
X104979036Y-104230000D01*
X104972906Y-104167759D01*
X104954751Y-104107910D01*
X104925269Y-104052753D01*
X104885593Y-104004407D01*
X104837247Y-103964731D01*
X104782090Y-103935249D01*
X104722241Y-103917094D01*
X104660000Y-103910964D01*
X104079875Y-103912500D01*
X104000500Y-103991875D01*
X103619500Y-103991875D01*
X103540125Y-103912500D01*
X102960000Y-103910964D01*
X102897759Y-103917094D01*
X102837910Y-103935249D01*
X102782753Y-103964731D01*
X102734407Y-104004407D01*
X102694731Y-104052753D01*
X102665249Y-104107910D01*
X102647094Y-104167759D01*
X102640964Y-104230000D01*
X97359036Y-104230000D01*
X97352906Y-104167759D01*
X97334751Y-104107910D01*
X97305269Y-104052753D01*
X97265593Y-104004407D01*
X97217247Y-103964731D01*
X97162090Y-103935249D01*
X97102241Y-103917094D01*
X97040000Y-103910964D01*
X96459875Y-103912500D01*
X96380500Y-103991875D01*
X95999500Y-103991875D01*
X95920125Y-103912500D01*
X95340000Y-103910964D01*
X95277759Y-103917094D01*
X95217910Y-103935249D01*
X95162753Y-103964731D01*
X95114407Y-104004407D01*
X95074731Y-104052753D01*
X95045249Y-104107910D01*
X95027094Y-104167759D01*
X95020964Y-104230000D01*
X94714500Y-104230000D01*
X94714500Y-103254327D01*
X96015081Y-103254327D01*
X96134062Y-103421864D01*
X96374516Y-103519511D01*
X96629400Y-103568371D01*
X96888919Y-103566567D01*
X97143099Y-103514168D01*
X97365938Y-103421864D01*
X97484919Y-103254327D01*
X102515081Y-103254327D01*
X102634062Y-103421864D01*
X102874516Y-103519511D01*
X103129400Y-103568371D01*
X103388919Y-103566567D01*
X103643099Y-103514168D01*
X103865938Y-103421864D01*
X103984919Y-103254327D01*
X103250000Y-102519408D01*
X102515081Y-103254327D01*
X97484919Y-103254327D01*
X96750000Y-102519408D01*
X96015081Y-103254327D01*
X94714500Y-103254327D01*
X94714500Y-102129400D01*
X95431629Y-102129400D01*
X95433433Y-102388919D01*
X95485832Y-102643099D01*
X95578136Y-102865938D01*
X95745673Y-102984919D01*
X96480592Y-102250000D01*
X97019408Y-102250000D01*
X97754327Y-102984919D01*
X97921864Y-102865938D01*
X98019511Y-102625484D01*
X98068371Y-102370600D01*
X98066695Y-102129400D01*
X101931629Y-102129400D01*
X101933433Y-102388919D01*
X101985832Y-102643099D01*
X102078136Y-102865938D01*
X102245673Y-102984919D01*
X102980592Y-102250000D01*
X103519408Y-102250000D01*
X104254327Y-102984919D01*
X104421864Y-102865938D01*
X104519511Y-102625484D01*
X104568371Y-102370600D01*
X104566567Y-102111081D01*
X104514168Y-101856901D01*
X104421864Y-101634062D01*
X104254327Y-101515081D01*
X103519408Y-102250000D01*
X102980592Y-102250000D01*
X102245673Y-101515081D01*
X102078136Y-101634062D01*
X101980489Y-101874516D01*
X101931629Y-102129400D01*
X98066695Y-102129400D01*
X98066567Y-102111081D01*
X98014168Y-101856901D01*
X97921864Y-101634062D01*
X97754327Y-101515081D01*
X97019408Y-102250000D01*
X96480592Y-102250000D01*
X95745673Y-101515081D01*
X95578136Y-101634062D01*
X95480489Y-101874516D01*
X95431629Y-102129400D01*
X94714500Y-102129400D01*
X94714500Y-101245673D01*
X96015081Y-101245673D01*
X96750000Y-101980592D01*
X97330592Y-101400000D01*
X99260225Y-101400000D01*
X99265313Y-101451655D01*
X99280380Y-101501325D01*
X99304848Y-101547101D01*
X99337776Y-101587224D01*
X99377899Y-101620152D01*
X99423675Y-101644620D01*
X99473345Y-101659687D01*
X99525000Y-101664775D01*
X99870625Y-101663500D01*
X99936500Y-101597625D01*
X99936500Y-100938500D01*
X100063500Y-100938500D01*
X100063500Y-101597625D01*
X100129375Y-101663500D01*
X100475000Y-101664775D01*
X100526655Y-101659687D01*
X100576325Y-101644620D01*
X100622101Y-101620152D01*
X100662224Y-101587224D01*
X100695152Y-101547101D01*
X100719620Y-101501325D01*
X100734687Y-101451655D01*
X100739775Y-101400000D01*
X100739278Y-101245673D01*
X102515081Y-101245673D01*
X103250000Y-101980592D01*
X103984919Y-101245673D01*
X103865938Y-101078136D01*
X103625484Y-100980489D01*
X103370600Y-100931629D01*
X103111081Y-100933433D01*
X102856901Y-100985832D01*
X102634062Y-101078136D01*
X102515081Y-101245673D01*
X100739278Y-101245673D01*
X100738500Y-101004375D01*
X100672625Y-100938500D01*
X100063500Y-100938500D01*
X99936500Y-100938500D01*
X99327375Y-100938500D01*
X99261500Y-101004375D01*
X99260225Y-101400000D01*
X97330592Y-101400000D01*
X97484919Y-101245673D01*
X97365938Y-101078136D01*
X97125484Y-100980489D01*
X96870600Y-100931629D01*
X96611081Y-100933433D01*
X96356901Y-100985832D01*
X96134062Y-101078136D01*
X96015081Y-101245673D01*
X94714500Y-101245673D01*
X94714500Y-100139500D01*
X99366138Y-100139500D01*
X99337776Y-100162776D01*
G04 #@! TA.AperFunction,Conductor*
D14*
G36*
X99337776Y-100162776D02*
G01*
X99304848Y-100202899D01*
X99280380Y-100248675D01*
X99265313Y-100298345D01*
X99260225Y-100350000D01*
X99261500Y-100745625D01*
X99327375Y-100811500D01*
X99936500Y-100811500D01*
X99936500Y-100791500D01*
X100063500Y-100791500D01*
X100063500Y-100811500D01*
X100672625Y-100811500D01*
X100738500Y-100745625D01*
X100739775Y-100350000D01*
X100734687Y-100298345D01*
X100719620Y-100248675D01*
X100695152Y-100202899D01*
X100662224Y-100162776D01*
X100633862Y-100139500D01*
X105285500Y-100139500D01*
X105285500Y-106555500D01*
X94714500Y-106555500D01*
X94714500Y-105930000D01*
X95020964Y-105930000D01*
X95027094Y-105992241D01*
X95045249Y-106052090D01*
X95074731Y-106107247D01*
X95114407Y-106155593D01*
X95162753Y-106195269D01*
X95217910Y-106224751D01*
X95277759Y-106242906D01*
X95340000Y-106249036D01*
X95920125Y-106247500D01*
X95999500Y-106168125D01*
X95999500Y-105270500D01*
X96380500Y-105270500D01*
X96380500Y-106168125D01*
X96459875Y-106247500D01*
X97040000Y-106249036D01*
X97102241Y-106242906D01*
X97162090Y-106224751D01*
X97217247Y-106195269D01*
X97265593Y-106155593D01*
X97305269Y-106107247D01*
X97334751Y-106052090D01*
X97352906Y-105992241D01*
X97359036Y-105930000D01*
X102640964Y-105930000D01*
X102647094Y-105992241D01*
X102665249Y-106052090D01*
X102694731Y-106107247D01*
X102734407Y-106155593D01*
X102782753Y-106195269D01*
X102837910Y-106224751D01*
X102897759Y-106242906D01*
X102960000Y-106249036D01*
X103540125Y-106247500D01*
X103619500Y-106168125D01*
X103619500Y-105270500D01*
X104000500Y-105270500D01*
X104000500Y-106168125D01*
X104079875Y-106247500D01*
X104660000Y-106249036D01*
X104722241Y-106242906D01*
X104782090Y-106224751D01*
X104837247Y-106195269D01*
X104885593Y-106155593D01*
X104925269Y-106107247D01*
X104954751Y-106052090D01*
X104972906Y-105992241D01*
X104979036Y-105930000D01*
X104977500Y-105349875D01*
X104898125Y-105270500D01*
X104000500Y-105270500D01*
X103619500Y-105270500D01*
X102721875Y-105270500D01*
X102642500Y-105349875D01*
X102640964Y-105930000D01*
X97359036Y-105930000D01*
X97357500Y-105349875D01*
X97278125Y-105270500D01*
X96380500Y-105270500D01*
X95999500Y-105270500D01*
X95101875Y-105270500D01*
X95022500Y-105349875D01*
X95020964Y-105930000D01*
X94714500Y-105930000D01*
X94714500Y-104230000D01*
X95020964Y-104230000D01*
X95022500Y-104810125D01*
X95101875Y-104889500D01*
X95999500Y-104889500D01*
X95999500Y-103991875D01*
X96380500Y-103991875D01*
X96380500Y-104889500D01*
X97278125Y-104889500D01*
X97357500Y-104810125D01*
X97359036Y-104230000D01*
X102640964Y-104230000D01*
X102642500Y-104810125D01*
X102721875Y-104889500D01*
X103619500Y-104889500D01*
X103619500Y-103991875D01*
X104000500Y-103991875D01*
X104000500Y-104889500D01*
X104898125Y-104889500D01*
X104977500Y-104810125D01*
X104979036Y-104230000D01*
X104972906Y-104167759D01*
X104954751Y-104107910D01*
X104925269Y-104052753D01*
X104885593Y-104004407D01*
X104837247Y-103964731D01*
X104782090Y-103935249D01*
X104722241Y-103917094D01*
X104660000Y-103910964D01*
X104079875Y-103912500D01*
X104000500Y-103991875D01*
X103619500Y-103991875D01*
X103540125Y-103912500D01*
X102960000Y-103910964D01*
X102897759Y-103917094D01*
X102837910Y-103935249D01*
X102782753Y-103964731D01*
X102734407Y-104004407D01*
X102694731Y-104052753D01*
X102665249Y-104107910D01*
X102647094Y-104167759D01*
X102640964Y-104230000D01*
X97359036Y-104230000D01*
X97352906Y-104167759D01*
X97334751Y-104107910D01*
X97305269Y-104052753D01*
X97265593Y-104004407D01*
X97217247Y-103964731D01*
X97162090Y-103935249D01*
X97102241Y-103917094D01*
X97040000Y-103910964D01*
X96459875Y-103912500D01*
X96380500Y-103991875D01*
X95999500Y-103991875D01*
X95920125Y-103912500D01*
X95340000Y-103910964D01*
X95277759Y-103917094D01*
X95217910Y-103935249D01*
X95162753Y-103964731D01*
X95114407Y-104004407D01*
X95074731Y-104052753D01*
X95045249Y-104107910D01*
X95027094Y-104167759D01*
X95020964Y-104230000D01*
X94714500Y-104230000D01*
X94714500Y-103254327D01*
X96015081Y-103254327D01*
X96134062Y-103421864D01*
X96374516Y-103519511D01*
X96629400Y-103568371D01*
X96888919Y-103566567D01*
X97143099Y-103514168D01*
X97365938Y-103421864D01*
X97484919Y-103254327D01*
X102515081Y-103254327D01*
X102634062Y-103421864D01*
X102874516Y-103519511D01*
X103129400Y-103568371D01*
X103388919Y-103566567D01*
X103643099Y-103514168D01*
X103865938Y-103421864D01*
X103984919Y-103254327D01*
X103250000Y-102519408D01*
X102515081Y-103254327D01*
X97484919Y-103254327D01*
X96750000Y-102519408D01*
X96015081Y-103254327D01*
X94714500Y-103254327D01*
X94714500Y-102129400D01*
X95431629Y-102129400D01*
X95433433Y-102388919D01*
X95485832Y-102643099D01*
X95578136Y-102865938D01*
X95745673Y-102984919D01*
X96480592Y-102250000D01*
X97019408Y-102250000D01*
X97754327Y-102984919D01*
X97921864Y-102865938D01*
X98019511Y-102625484D01*
X98068371Y-102370600D01*
X98066695Y-102129400D01*
X101931629Y-102129400D01*
X101933433Y-102388919D01*
X101985832Y-102643099D01*
X102078136Y-102865938D01*
X102245673Y-102984919D01*
X102980592Y-102250000D01*
X103519408Y-102250000D01*
X104254327Y-102984919D01*
X104421864Y-102865938D01*
X104519511Y-102625484D01*
X104568371Y-102370600D01*
X104566567Y-102111081D01*
X104514168Y-101856901D01*
X104421864Y-101634062D01*
X104254327Y-101515081D01*
X103519408Y-102250000D01*
X102980592Y-102250000D01*
X102245673Y-101515081D01*
X102078136Y-101634062D01*
X101980489Y-101874516D01*
X101931629Y-102129400D01*
X98066695Y-102129400D01*
X98066567Y-102111081D01*
X98014168Y-101856901D01*
X97921864Y-101634062D01*
X97754327Y-101515081D01*
X97019408Y-102250000D01*
X96480592Y-102250000D01*
X95745673Y-101515081D01*
X95578136Y-101634062D01*
X95480489Y-101874516D01*
X95431629Y-102129400D01*
X94714500Y-102129400D01*
X94714500Y-101245673D01*
X96015081Y-101245673D01*
X96750000Y-101980592D01*
X97330592Y-101400000D01*
X99260225Y-101400000D01*
X99265313Y-101451655D01*
X99280380Y-101501325D01*
X99304848Y-101547101D01*
X99337776Y-101587224D01*
X99377899Y-101620152D01*
X99423675Y-101644620D01*
X99473345Y-101659687D01*
X99525000Y-101664775D01*
X99870625Y-101663500D01*
X99936500Y-101597625D01*
X99936500Y-100938500D01*
X100063500Y-100938500D01*
X100063500Y-101597625D01*
X100129375Y-101663500D01*
X100475000Y-101664775D01*
X100526655Y-101659687D01*
X100576325Y-101644620D01*
X100622101Y-101620152D01*
X100662224Y-101587224D01*
X100695152Y-101547101D01*
X100719620Y-101501325D01*
X100734687Y-101451655D01*
X100739775Y-101400000D01*
X100739278Y-101245673D01*
X102515081Y-101245673D01*
X103250000Y-101980592D01*
X103984919Y-101245673D01*
X103865938Y-101078136D01*
X103625484Y-100980489D01*
X103370600Y-100931629D01*
X103111081Y-100933433D01*
X102856901Y-100985832D01*
X102634062Y-101078136D01*
X102515081Y-101245673D01*
X100739278Y-101245673D01*
X100738500Y-101004375D01*
X100672625Y-100938500D01*
X100063500Y-100938500D01*
X99936500Y-100938500D01*
X99327375Y-100938500D01*
X99261500Y-101004375D01*
X99260225Y-101400000D01*
X97330592Y-101400000D01*
X97484919Y-101245673D01*
X97365938Y-101078136D01*
X97125484Y-100980489D01*
X96870600Y-100931629D01*
X96611081Y-100933433D01*
X96356901Y-100985832D01*
X96134062Y-101078136D01*
X96015081Y-101245673D01*
X94714500Y-101245673D01*
X94714500Y-100139500D01*
X99366138Y-100139500D01*
X99337776Y-100162776D01*
G37*
G04 #@! TD.AperFunction*
M02*
